<svg height="166" viewBox="0 0 764 166" width="764" xmlns="http://www.w3.org/2000/svg" xmlns:xlink="http://www.w3.org/1999/xlink"><defs><path id="a" d="m672.350336 35.074c1.051339 0 1.956996-.1203321 2.717-.361s1.383831-.5794978 1.8715-1.0165.845499-.9563303 1.0735-1.558.342-1.2634964.342-1.9855c0-1.406007-.500328-2.5174959-1.501-3.3345s-2.501657-1.2255-4.503-1.2255h-5.89v9.481zm-5.89-21.394v9.291h4.864c1.038672 0 1.941163-.1139989 2.7075-.342s1.399664-.5446646 1.9-.95.870832-.8961638 1.1115-1.4725.361-1.2064966.361-1.8905c0-1.6086747-.481329-2.7834963-1.444-3.5245s-2.457323-1.1115-4.484-1.1115zm5.016-2.907c1.672008 0 3.112827.164665 4.3225.494s2.203996.797997 2.983 1.406 1.352165 1.3521623 1.7195 2.2325.551 1.8714945.551 2.9735c0 .6713367-.104499 1.3141636-.3135 1.9285s-.522498 1.1874973-.9405 1.7195-.94683 1.0101645-1.5865 1.4345-1.390162.7694987-2.2515 1.0355c2.001343.3800019 3.505495 1.0924948 4.5125 2.1375s1.5105 2.4161582 1.5105 4.1135c0 1.1526724-.212165 2.2039952-.6365 3.154-.424335.9500047-1.044996 1.7669966-1.862 2.451s-1.820827 1.2128315-3.0115 1.5865-2.545992.5605-4.066.5605h-9.614v-27.227zm32.68 24.225-.019 3.002h-16.777v-27.227h16.777v3.002h-13.091v9.044h10.602v2.888h-10.602v9.291zm23.56-21.128h-8.816v24.13h-3.667v-24.13h-8.835v-3.097h21.318zm15.827 14.022-4.275-11.077c-.126667-.329335-.259666-.7124978-.399-1.1495s-.272333-.9024975-.399-1.3965c-.266001 1.0260051-.538332 1.8809966-.817 2.565l-4.275 11.058zm7.676 10.108h-2.85c-.329335 0-.595332-.0823325-.798-.247s-.354666-.3736654-.456-.627l-2.546-6.574h-12.217l-2.546 6.574c-.076.2280011-.221666.4306658-.437.608s-.481332.266-.798.266h-2.85l10.887-27.227h3.724z"/></defs><g fill="none" fill-rule="evenodd"><g transform="translate(0 54)"><path d="m171.2 105.2-48-102.3c-.6-1.1-1.7-1.9-2.9-1.9h-1.5c-1.2.1-2.4.8-2.9 1.9l-39.2 83.6h-52v-80.6c0-1.8-1.5-3.2-3.2-3.3h-18.2c-1.8 0-3.3 1.5-3.3 3.3v100.6c0 1.8 1.5 3.3 3.3 3.3h84.4c.2 0 .4 0 .7-.1 2.3-.2 4.3-1.7 5.2-3.8l5.5-12.2 9.2-20.8 11.2-24.9 11.4 24.7 9.2 20.8 5.5 12.1c1.4 3 2.8 4 5.7 4h17c1.1 0 2.2-.5 2.8-1.4.5-.9.6-2 .1-3z" fill="#f37320"/><g fill="#efb80d"><path d="m227.4 1c15.3 0 26.6 4.8 37.1 14.2 1.2 1 1.4 2.8.4 4-.1.1-.2.2-.2.3l-11.9 12.4c-1.1 1-2.7 1-3.8 0-5.7-5-13.1-7.8-20.7-7.8-17.3 0-30 14.4-30 31.5 0 17 12.9 31.1 30.2 31.1 7.5 0 14.7-2.6 20.5-7.3 1.2-1 2.9-.9 4 .2l11.9 12.7c1 1.2 1 3-.1 4.1-10 9.7-23.3 15-37.2 14.8-30.4.4-55.5-23.9-55.9-54.4s23.8-55.4 54.2-55.8z"/><path d="m326.6 1c30.4-.4 55.5 23.9 55.9 54.4s-23.9 55.5-54.4 55.9h-1.5c-30.2.2-54.8-24.1-55-54.3 0-.2 0-.5 0-.7-.2-30.4 24.2-55.1 54.6-55.3zm0 85.8c16.9.3 30.9-13.2 31.2-30.1s-13.2-30.9-30.1-31.2h-1.1c-16.7 0-30.5 13.9-30.5 30.8.1 16.8 13.7 30.4 30.5 30.5z" fill-rule="nonzero"/><path d="m395.7 5.4c0-1.6 1.3-2.9 2.9-2.9h18.8c1.6 0 2.9 1.3 2.9 2.9v62c0 10.7 8 19.3 18.8 19.3 10.4.1 19-8.2 19.1-18.7 0-.2 0-.4 0-.6v-62c0-1.6 1.3-2.9 2.9-2.9h18.9c1.6 0 2.9 1.3 3 2.9v63.3c0 23.3-19.6 42.6-43.8 42.6s-43.5-19.3-43.5-42.6z"/><path d="m501.3 3.8c.1-1.6 1.3-2.8 2.9-2.8h3.8l61.1 58.8h.2v-54.4c0-1.6 1.3-2.9 2.9-2.9h18.4c1.6 0 2.9 1.3 2.9 2.9v103c-.1 1.6-1.4 2.8-2.9 2.8h-2.5c-.7-.1-1.4-.4-2-.8l-60.5-60.7h-.2v57.1c0 1.6-1.3 2.9-2.9 2.9h-18.2c-1.6 0-2.9-1.3-2.9-2.9z"/><path d="m633.6 25h-21.9c-1.6 0-2.9-1.3-2.9-2.9v-16.7c0-1.6 1.3-2.9 2.9-2.9h68c1.6 0 2.9 1.3 2.9 2.9v16.7c0 1.6-1.3 2.9-2.9 2.9h-21.9v81.8c0 1.6-1.3 2.9-2.9 2.9h-18.4c-1.6 0-2.9-1.3-2.9-2.9z"/><path d="m732.2 44.7c-12.1-4.9-16.7-9.2-16.7-14.9 0-4.1 4.1-7.8 9.7-7.8 9.3 0 20.5 8.4 21.9 9.2 1.4 1.1 4.1-.3 5.2-2l7.8-11.8c.6-1.1.9-3.8-.9-4.9-4.6-3.4-16.9-11.5-32.8-11.5-23.6 0-35.4 15.3-35.4 30.5 0 18.4 16.5 28.6 29.7 33.8 10.4 4.1 15.8 9 15.8 15.5 0 5.4-4.4 9.2-10.6 9.2-4-.1-8-1.1-11.7-2.8-4.2-2.1-8.1-4.6-11.7-7.5-1-.8-3.9-1.4-5.3.5l-8.2 12c-1.4 2-1 2.7.4 4.3s2.9 3.1 4.6 4.3c4.1 3.5 12.9 9 27.1 10.2.6.1 1.1.1 1.7.2 1.4.1 2.8.1 4.2.1 22.5 0 36.1-15.9 36.1-31.7.1-20.9-18.9-30.2-30.9-34.9z"/></g></g><use fill="#000" xlink:href="#a"/><use fill="#fff" xlink:href="#a"/></g></svg>