<svg width="80" height="67" viewBox="0 0 80 67" fill="none" xmlns="http://www.w3.org/2000/svg">
<path fill-rule="evenodd" clip-rule="evenodd" d="M0 3C0 1.34314 1.34315 0 3 0H34C38.4183 0 42 3.58172 42 8V65C42 66.1046 41.1046 67 40 67C38.8954 67 38 66.1046 38 65V8C38 5.79086 36.2091 4 34 4H4V57H25C26.1046 57 27 57.8954 27 59C27 60.1046 26.1046 61 25 61H3C1.34315 61 0 59.6569 0 58V3Z"/>
<path fill-rule="evenodd" clip-rule="evenodd" d="M23 59C23 57.8954 23.8954 57 25 57H34C38.4183 57 42 60.5817 42 65H38C38 62.7909 36.2091 61 34 61H25C23.8954 61 23 60.1046 23 59Z"/>
<rect width="42" height="67" fill-opacity="0" transform="translate(80) scale(-1 1)"/>
<path fill-rule="evenodd" clip-rule="evenodd" d="M80 3C80 1.34314 78.6569 0 77 0H46C41.5817 0 38 3.58172 38 8V65C38 66.1046 38.8954 67 40 67C41.1046 67 42 66.1046 42 65V8C42 5.79086 43.7909 4 46 4H76V57H55C53.8954 57 53 57.8954 53 59C53 60.1046 53.8954 61 55 61H77C78.6569 61 80 59.6569 80 58V3Z"/>
<path fill-rule="evenodd" clip-rule="evenodd" d="M57 59C57 57.8954 56.1046 57 55 57H46C41.5817 57 38 60.5817 38 65H42C42 62.7909 43.7909 61 46 61H55C56.1046 61 57 60.1046 57 59Z"/>
<path fill-rule="evenodd" clip-rule="evenodd" d="M10 16C10 14.8954 10.8954 14 12 14H30C31.1046 14 32 14.8954 32 16C32 17.1046 31.1046 18 30 18H12C10.8954 18 10 17.1046 10 16ZM10 26C10 24.8954 10.8954 24 12 24H30C31.1046 24 32 24.8954 32 26C32 27.1046 31.1046 28 30 28H12C10.8954 28 10 27.1046 10 26ZM10 36C10 34.8954 10.8954 34 12 34H30C31.1046 34 32 34.8954 32 36C32 37.1046 31.1046 38 30 38H12C10.8954 38 10 37.1046 10 36ZM10 46C10 44.8954 10.8954 44 12 44H30C31.1046 44 32 44.8954 32 46C32 47.1046 31.1046 48 30 48H12C10.8954 48 10 47.1046 10 46Z"/>
<path fill-rule="evenodd" clip-rule="evenodd" d="M48 16C48 14.8954 48.8954 14 50 14H68C69.1046 14 70 14.8954 70 16C70 17.1046 69.1046 18 68 18H50C48.8954 18 48 17.1046 48 16ZM48 26C48 24.8954 48.8954 24 50 24H68C69.1046 24 70 24.8954 70 26C70 27.1046 69.1046 28 68 28H50C48.8954 28 48 27.1046 48 26ZM48 36C48 34.8954 48.8954 34 50 34H68C69.1046 34 70 34.8954 70 36C70 37.1046 69.1046 38 68 38H50C48.8954 38 48 37.1046 48 36ZM48 46C48 44.8954 48.8954 44 50 44H68C69.1046 44 70 44.8954 70 46C70 47.1046 69.1046 48 68 48H50C48.8954 48 48 47.1046 48 46Z"/>
</svg>
