<svg width="83" height="81" viewBox="0 0 83 81" fill="none" xmlns="http://www.w3.org/2000/svg">
<rect width="83" height="81" fill-opacity="0"/>
<path fill-rule="evenodd" clip-rule="evenodd" d="M15.806 4.81699C19.7253 1.80567 25.0541 0 30.8592 0H52.1407C57.9458 0 63.2746 1.80567 67.1939 4.81699C71.1153 7.82992 73.7058 12.1314 73.7058 17.0325V70.7952H9.29407V17.0325C9.29407 12.1314 11.8846 7.82992 15.806 4.81699ZM18.2431 7.98886C15.0833 10.4166 13.2941 13.6314 13.2941 17.0325V66.7952H69.7058V17.0325C69.7058 13.6314 67.9166 10.4166 64.7568 7.98886C61.5949 5.55948 57.1411 4 52.1407 4H30.8592C25.8588 4 21.405 5.55948 18.2431 7.98886Z" />
<path fill-rule="evenodd" clip-rule="evenodd" d="M71.1581 46.0306H11.6721V42.0306H71.1581V46.0306Z"/>
<path fill-rule="evenodd" clip-rule="evenodd" d="M20 69V75.3333C20 76.0936 20.7281 77 22 77C23.2719 77 24 76.0936 24 75.3333V69H28V75.3333C28 78.6232 25.1463 81 22 81C18.8537 81 16 78.6232 16 75.3333V69H20Z" />
<path fill-rule="evenodd" clip-rule="evenodd" d="M59 69V75.3333C59 76.0936 59.7281 77 61 77C62.2719 77 63 76.0936 63 75.3333V69H67V75.3333C67 78.6232 64.1463 81 61 81C57.8537 81 55 78.6232 55 75.3333V69H59Z" />
<path fill-rule="evenodd" clip-rule="evenodd" d="M23.3661 54.1005C21.9284 54.1005 20.7903 55.2524 20.7903 56.6398C20.7903 58.0271 21.9284 59.1791 23.3661 59.1791C24.8039 59.1791 25.942 58.0271 25.942 56.6398C25.942 55.2524 24.8039 54.1005 23.3661 54.1005ZM16.7903 56.6398C16.7903 53.0131 19.7495 50.1005 23.3661 50.1005C26.9827 50.1005 29.942 53.0131 29.942 56.6398C29.942 60.2664 26.9827 63.1791 23.3661 63.1791C19.7495 63.1791 16.7903 60.2664 16.7903 56.6398Z" />
<path fill-rule="evenodd" clip-rule="evenodd" d="M59.634 54.1005C58.1962 54.1005 57.0581 55.2524 57.0581 56.6398C57.0581 58.0271 58.1962 59.1791 59.634 59.1791C61.0717 59.1791 62.2098 58.0271 62.2098 56.6398C62.2098 55.2524 61.0717 54.1005 59.634 54.1005ZM53.0581 56.6398C53.0581 53.0131 56.0174 50.1005 59.634 50.1005C63.2505 50.1005 66.2098 53.0131 66.2098 56.6398C66.2098 60.2664 63.2505 63.1791 59.634 63.1791C56.0174 63.1791 53.0581 60.2664 53.0581 56.6398Z" />
<path fill-rule="evenodd" clip-rule="evenodd" d="M32.0431 50.1591C32.0431 49.0545 32.9385 48.1591 34.0431 48.1591H48.957C50.0615 48.1591 50.957 49.0545 50.957 50.1591C50.957 51.2636 50.0615 52.1591 48.957 52.1591H34.0431C32.9385 52.1591 32.0431 51.2636 32.0431 50.1591Z" />
<path fill-rule="evenodd" clip-rule="evenodd" d="M32.0431 56.4718C32.0431 55.3672 32.9385 54.4718 34.0431 54.4718H48.957C50.0615 54.4718 50.957 55.3672 50.957 56.4718C50.957 57.5764 50.0615 58.4718 48.957 58.4718H34.0431C32.9385 58.4718 32.0431 57.5764 32.0431 56.4718Z" />
<path fill-rule="evenodd" clip-rule="evenodd" d="M32.0431 62.234C32.0431 61.1294 32.9385 60.234 34.0431 60.234H48.957C50.0615 60.234 50.957 61.1294 50.957 62.234C50.957 63.3386 50.0615 64.234 48.957 64.234H34.0431C32.9385 64.234 32.0431 63.3386 32.0431 62.234Z" />
<path fill-rule="evenodd" clip-rule="evenodd" d="M83 23.5636C83 20.5777 80.5795 18.1572 77.5936 18.1572H73V22.1572H75.5936V30.2226C75.5936 32.2846 77.2795 33.9258 79.3079 33.9258C81.3241 33.9258 83 32.2944 83 30.2446V23.5636Z" />
<path fill-rule="evenodd" clip-rule="evenodd" d="M0 23.5636C0 20.5777 2.42052 18.1572 5.40637 18.1572H10V22.1572H7.40637V30.2226C7.40637 32.2846 5.72048 33.9258 3.69213 33.9258C1.67592 33.9258 0 32.2944 0 30.2446V23.5636Z" />
</svg>
