<svg width="80" height="67" viewBox="0 0 80 67" fill="none" xmlns="http://www.w3.org/2000/svg">
<rect width="80" height="66.1524" fill-opacity="0"/>
<path fill-rule="evenodd" clip-rule="evenodd" d="M24.4622 4C13.2594 4 4 13.6056 4 25.6798C4 36.2193 12.1584 50.5786 40 61.8451C67.8416 50.5786 76 36.2193 76 25.6798C76 13.6056 66.7406 4.00002 55.5378 4.00002C50.0792 4.00002 45.1068 6.26377 41.4213 9.98635L40 11.4219L38.5787 9.98635C34.8932 6.26376 29.9208 4 24.4622 4ZM0 25.6798C0 11.598 10.8539 0 24.4622 0C30.3738 0 35.7852 2.20205 40 5.84388C44.2148 2.20206 49.6262 2.02656e-05 55.5378 2.02656e-05C69.1461 2.02656e-05 80 11.598 80 25.6798C80 38.6966 69.8599 54.2762 40.7391 65.8584L40 66.1524L39.2609 65.8584C10.1401 54.2762 0 38.6966 0 25.6798Z"/>
<path fill-rule="evenodd" clip-rule="evenodd" d="M51.3101 30H76.5001V34H53.8464L46.449 49.6898L38.5107 32.8529L42.1288 31.1471L46.449 40.3102L51.3101 30Z" />
<path fill-rule="evenodd" clip-rule="evenodd" d="M26.793 30L2.99995 30L2.99995 34L29.3293 34L34.1904 23.6898L38.5106 32.8529L42.1287 31.1471L34.1904 14.3102L26.793 30Z" />
</svg>
