<svg width="94" height="86" viewBox="0 0 94 86" fill="none" xmlns="http://www.w3.org/2000/svg">
<path d="M92.2128 33.3037C91.3128 31.0037 90.1128 28.9037 88.6128 27.0037C90.9128 24.7037 92.2128 21.6037 92.2128 18.3037C92.2128 15.0037 90.9128 12.0037 88.6128 9.60374C83.9128 4.90374 76.4128 4.80374 71.6128 9.30374C68.5128 5.20374 64.1128 2.20374 59.0128 0.803743C53.1128 -0.796257 46.9128 0.00374293 41.6128 3.10374C34.3128 7.30374 30.0128 15.0037 30.1128 23.3037L5.51279 37.5037C4.71279 38.0037 4.01279 38.8037 3.71279 39.7037L0.212789 50.2037C-0.187211 51.3037 0.0127891 52.5037 0.512789 53.5037C1.11279 54.5037 2.01279 55.2037 3.21279 55.4037L14.0128 57.6037C14.3128 57.7037 14.5128 57.7037 14.8128 57.7037C15.5128 57.7037 16.2128 57.5037 16.8128 57.2037L17.9128 56.6037C18.8128 56.1037 19.4128 55.3037 19.7128 54.3037L20.9128 50.3037L25.1128 51.3037C26.0128 51.5037 26.9128 51.4037 27.7128 50.9037C28.5128 50.4037 29.1128 49.7037 29.3128 48.8037L30.6128 44.7037L34.6128 45.6037C35.6128 45.8037 36.6128 45.7037 37.5128 45.2037L41.5128 42.9037C43.5128 44.1037 45.7128 44.9037 48.0128 45.4037C48.1128 46.2037 48.3128 46.9037 48.5128 47.7037L28.5128 67.8037C27.8128 68.5037 27.4128 69.4037 27.3128 70.4037L26.6128 81.4037C26.5128 82.5037 27.0128 83.7037 27.8128 84.5037C28.6128 85.3037 29.6128 85.7037 30.6128 85.7037C30.7128 85.7037 30.8128 85.7037 30.8128 85.7037L41.8128 85.0037C42.8128 84.9037 43.7128 84.5037 44.4128 83.8037L45.3128 82.9037C46.0128 82.2037 46.4128 81.2037 46.5128 80.2037L46.6128 76.1037L50.9128 76.0037C51.8128 76.0037 52.7128 75.6037 53.3128 75.0037C53.9128 74.4037 54.3128 73.5037 54.3128 72.6037L54.4128 68.3037L58.5128 68.2037C59.5128 68.2037 60.5128 67.8037 61.2128 67.0037L64.5128 63.7037C72.4128 65.8037 80.8128 63.6037 86.7128 57.8037C93.3128 51.3037 95.3128 41.7037 92.2128 33.3037ZM79.9128 10.1037C82.1128 10.1037 84.2128 11.0037 85.7128 12.5037C87.3128 14.1037 88.1128 16.1037 88.1128 18.3037C88.1128 20.5037 87.3128 22.5037 85.7128 24.1037C82.7128 21.5037 79.3128 19.8037 75.6128 19.0037C75.2128 16.9037 74.6128 14.8037 73.6128 12.9037L74.0128 12.5037C75.7128 10.9037 77.7128 10.1037 79.9128 10.1037ZM59.3128 21.4037C59.1128 21.2037 59.0128 21.1037 58.8128 20.8037C58.5128 20.3037 58.4128 19.6037 58.6128 19.0037C58.8128 18.4037 59.1128 17.9037 59.7128 17.6037C60.2128 17.3037 60.9128 17.2037 61.5128 17.4037C62.1128 17.6037 62.6128 17.9037 62.9128 18.5037C63.1128 18.8037 63.2128 19.2037 63.2128 19.6037C61.9128 20.2037 60.6128 20.7037 59.3128 21.4037ZM42.7128 38.9037L41.7128 38.2037L35.6128 41.7037L31.6128 40.8037C29.6128 40.3037 27.5128 41.5037 26.9128 43.5037L25.8128 47.2037L22.0128 46.3037C20.0128 45.8037 17.9128 47.0037 17.3128 49.0037L16.1128 53.0037L15.0128 53.6037L4.01279 51.5037L7.51279 41.0037L34.2128 25.6037L34.1128 24.4037C33.6128 17.1037 37.2128 10.3037 43.5128 6.60374C52.6128 1.40374 64.2128 4.50374 69.4128 13.5037C70.2128 14.9037 70.9128 16.4037 71.3128 18.0037C69.8128 17.9037 68.4128 18.0037 66.9128 18.2037C66.8128 17.6037 66.5128 17.1037 66.2128 16.6037C65.4128 15.1037 64.0128 14.1037 62.4128 13.6037C60.8128 13.2037 59.1128 13.4037 57.6128 14.2037C56.1128 15.0037 55.1128 16.4037 54.6128 18.0037C54.2128 19.6037 54.4128 21.3037 55.2128 22.8037C55.3128 22.9037 55.3128 23.0037 55.4128 23.1037C54.8128 23.6037 54.3128 24.0037 53.8128 24.6037C49.4128 29.0037 47.0128 34.8037 47.1128 41.0037C45.7128 40.5037 44.1128 39.8037 42.7128 38.9037ZM84.1128 54.8037C79.0128 59.9037 71.6128 61.7037 64.8128 59.4037L63.6128 59.0037L58.6128 64.0037L54.5128 64.1037C52.4128 64.2037 50.7128 65.9037 50.6128 68.0037L50.5128 71.9037L46.6128 72.0037C44.5128 72.1037 42.8128 73.8037 42.7128 75.9037L42.6128 80.0037L41.7128 80.9037L30.7128 81.6037L31.4128 70.6037L53.2128 48.8037L52.8128 47.6037C50.4128 40.7037 52.1128 33.2037 57.3128 28.0037C61.0128 24.3037 65.9128 22.5037 70.7128 22.5037C75.1128 22.5037 79.4128 24.0037 83.0128 27.0037L80.2128 29.8037C77.7128 28.3037 74.3128 28.7037 72.1128 30.8037C70.8128 32.1037 70.1128 33.7037 70.1128 35.5037C70.1128 37.3037 70.8128 39.0037 72.1128 40.2037C73.4128 41.4037 75.0128 42.2037 76.8128 42.2037C78.6128 42.2037 80.3128 41.5037 81.5128 40.2037C82.8128 38.9037 83.5128 37.3037 83.5128 35.5037C83.5128 34.5037 83.3128 33.6037 82.9128 32.7037L85.7128 29.9037C86.8128 31.4037 87.8128 33.0037 88.4128 34.8037C91.1128 41.7037 89.3128 49.5037 84.1128 54.8037ZM79.5128 35.4037C79.5128 36.1037 79.2128 36.8037 78.7128 37.3037C77.7128 38.3037 75.9128 38.3037 74.9128 37.3037C74.4128 36.8037 74.1128 36.1037 74.1128 35.4037C74.1128 34.7037 74.4128 34.0037 74.9128 33.5037C75.4128 33.0037 76.1128 32.7037 76.8128 32.7037C77.5128 32.7037 78.2128 33.0037 78.7128 33.5037C79.2128 34.1037 79.5128 34.7037 79.5128 35.4037Z" />
</svg>
