<svg width="109" height="109" viewBox="0 0 109 109" fill="none" xmlns="http://www.w3.org/2000/svg">
<rect width="46.5981" height="106.19" fill-opacity="0" transform="translate(75.2592 0.171265) rotate(45)"/>
<path fill-rule="evenodd" clip-rule="evenodd" d="M27.4401 80.9402C27.0143 80.5144 26.803 79.9194 26.8649 79.3204C28.7744 60.8434 30.176 50.3872 38.174 37.3353C38.6359 36.5815 39.5378 36.2204 40.3922 36.4471C42.5614 37.0227 44.2729 37.8571 45.7096 39.2698C45.9101 37.6255 46.2311 36.0871 46.6764 34.5735C47.668 31.2027 49.2519 28.0452 51.3129 24.2359C51.8271 23.2854 53.0035 22.9154 53.9693 23.4003C55.8859 24.3625 57.3174 25.3549 58.538 26.5495C59.0873 20.8004 61.5424 16.1625 64.5334 10.9934C64.8059 10.5224 65.2585 10.1828 65.7869 10.0529C66.3153 9.92295 66.8738 10.0139 67.3336 10.3047C69.4933 11.6707 71.2109 12.9277 72.8381 14.5367C74.1148 15.7992 75.2992 17.2421 76.5903 19.0615C78.5994 17.9572 80.434 17.2399 82.3733 16.7889C84.7934 16.2261 87.2841 16.1016 90.2926 16.0606C90.8325 16.0533 91.3523 16.2645 91.7341 16.6462C92.1158 17.028 92.327 17.5479 92.3197 18.0877C92.2787 21.0962 92.1542 23.5869 91.5914 26.007C91.1404 27.9464 90.4232 29.7809 89.3188 31.79C91.1382 33.0811 92.5812 34.2655 93.8436 35.5422C95.4527 37.1694 96.7096 38.887 98.0756 41.0467C98.3665 41.5066 98.4574 42.0651 98.3275 42.5934C98.1975 43.1218 97.8579 43.5744 97.387 43.8469C92.2179 46.8379 87.5799 49.293 81.8308 49.8423C83.0255 51.0629 84.0178 52.4945 84.9801 54.411C85.465 55.3769 85.0949 56.5532 84.1444 57.0675C80.3351 59.1284 77.1776 60.7123 73.8069 61.7039C72.2933 62.1492 70.7549 62.4702 69.1105 62.6707C70.5232 64.1075 71.3576 65.8189 71.9332 67.9881C72.1599 68.8425 71.7988 69.7445 71.0451 70.2063C57.9931 78.2043 47.5369 79.606 29.0599 81.5154C28.4609 81.5773 27.8659 81.366 27.4401 80.9402ZM67.608 67.6025C67.218 66.6311 66.7485 65.9469 66.1496 65.3674C65.2352 64.4824 63.8773 63.7001 61.5719 62.7026C60.6854 62.319 60.1998 61.3568 60.4176 60.4159C60.6355 59.4749 61.4947 58.8241 62.4595 58.8692C66.7085 59.0678 69.7848 58.7177 72.678 57.8665C75.1293 57.1454 77.5139 56.0474 80.4468 54.5073C79.8678 53.6073 79.283 52.9194 78.6396 52.3143C77.6054 51.3417 76.3568 50.5198 74.5064 49.3752C73.7012 48.8771 73.3556 47.8825 73.6785 46.9924C74.0013 46.1023 74.9041 45.5605 75.8414 45.6944C82.8214 46.6915 87.5825 44.7726 93.538 41.4376C92.7125 40.2586 91.9149 39.2806 90.9994 38.3547C89.6605 37.0008 88.0106 35.6988 85.5399 34.045C84.6438 33.4451 84.3846 32.2428 84.954 31.327C86.4505 28.9199 87.2451 27.0371 87.6954 25.101C88.0396 23.6207 88.1962 22.0555 88.27 20.1103C86.3248 20.1841 84.7596 20.3407 83.2794 20.6849C81.3432 21.1352 79.4604 21.9298 77.0533 23.4263C76.1375 23.9957 74.9352 23.7365 74.3353 22.8404C72.6815 20.3697 71.3795 18.7198 70.0256 17.3809C69.0997 16.4654 68.1218 15.6678 66.9427 14.8424C63.6077 20.7978 61.6888 25.559 62.6859 32.5389C62.8198 33.4762 62.278 34.379 61.3879 34.7019C60.4978 35.0247 59.5033 34.6791 59.0051 33.8739C57.8605 32.0236 57.0386 30.775 56.066 29.7408C55.461 29.0974 54.773 28.5126 53.873 27.9336C52.3329 30.8665 51.2349 33.251 50.5138 35.7023C49.6627 38.5956 49.3125 41.6718 49.5111 45.9209C49.5562 46.8856 48.9054 47.7448 47.9645 47.9627C47.0235 48.1806 46.0613 47.6949 45.6778 46.8085C44.6802 44.5031 43.8979 43.1452 43.013 42.2307C42.4334 41.6318 41.7492 41.1624 40.7779 40.7723C34.3201 51.8169 32.8167 61.0518 31.0997 77.2806C47.3285 75.5637 56.5634 74.0602 67.608 67.6025Z" />
<path fill-rule="evenodd" clip-rule="evenodd" d="M16.6461 91.7341C15.865 90.953 15.865 89.6867 16.6461 88.9057L70.0162 35.5356C70.7972 34.7545 72.0636 34.7545 72.8446 35.5356C73.6257 36.3166 73.6257 37.5829 72.8446 38.364L19.4745 91.7341C18.6935 92.5151 17.4271 92.5151 16.6461 91.7341Z" />
</svg>
