<svg width="90" height="90" viewBox="0 0 63 90" fill="none" xmlns="http://www.w3.org/2000/svg">
<rect width="62.2" height="89.96" fill-opacity="0" transform="translate(0 0.0400391)"/>
<path d="M59.6 7.90004H57.2V4.00004C57.2 2.80004 56.7 1.70004 55.8 1.00004C54.9 0.200039 53.7 -0.0999609 52.6 0.100039L2.5 7.90004C1.2 8.00004 0.2 9.10004 0.2 10.4L0 87.4C0 88.8 1.2 90 2.6 90H59.4C60.8 90 62 88.8 62 87.4L62.2 10.5C62.2 9.00004 61 7.90004 59.6 7.90004ZM53.2 4.00004V7.90004H28.5L53.2 4.00004ZM58 86H4L4.2 11.9H58.2L58 86Z" />
<path d="M31 70C37 70 42.8 67.4 46.8 62.9C50.1 59 52 54.1 52 49C52 43.9 50.1 39 46.8 35.1C42.8 30.6 37 28 31 28C25.1 28 19.4 30.5 15.4 34.9C11.9 38.7 10 43.7 10 49C10 54.2 11.9 59.2 15.4 63.1C19.4 67.4 25.1 70 31 70ZM31 32C32 32 33.6 34 34.7 37.8C32.2 38.1 29.7 38.1 27.2 37.7C28.4 33.9 30 32 31 32ZM31.3 42C32.8 42 34.2 41.9 35.7 41.7C36 43.3 36.1 45 36.2 46.9H25.8C25.9 44.9 26.1 43.2 26.3 41.6C28 41.9 29.6 42 31.3 42ZM36.2 51C36.1 52.9 35.9 54.7 35.7 56.2C34.3 56 32.8 55.9 31.3 55.9C29.6 55.9 28 56 26.4 56.3C26.1 54.7 25.9 52.9 25.9 51H36.2ZM34.7 60.1C33.6 63.9 32 66 31 66C30 66 28.4 64 27.3 60.3C29.7 59.8 32.3 59.8 34.7 60.1ZM24.7 64.7C23.1 64.1 21.6 63.2 20.3 62.2C21.3 61.8 22.3 61.4 23.3 61.1C23.8 62.4 24.2 63.6 24.7 64.7ZM37.3 64.7C37.8 63.6 38.3 62.3 38.7 60.9C39.8 61.2 40.8 61.6 41.9 62C40.5 63.2 38.9 64.1 37.3 64.7ZM44.7 59C43 58.2 41.3 57.5 39.5 57C39.8 55.1 40 53 40.1 50.9H47.8C47.5 53.8 46.5 56.6 44.7 59ZM47.9 47H40.2C40.1 44.9 39.9 42.9 39.6 40.9C41.4 40.4 43.1 39.8 44.8 38.9C46.5 41.3 47.5 44.1 47.9 47ZM38.7 37C38.3 35.6 37.8 34.3 37.3 33.2C39 33.9 40.5 34.8 41.9 35.9C40.8 36.3 39.8 36.7 38.7 37ZM24.7 33.2C24.2 34.3 23.7 35.5 23.3 36.8C22.3 36.5 21.3 36.1 20.3 35.7C21.7 34.6 23.2 33.8 24.7 33.2ZM17.4 38.7C19 39.5 20.7 40.2 22.5 40.7C22.2 42.7 21.9 44.8 21.9 46.9H14.2C14.5 44 15.6 41.1 17.4 38.7ZM21.8 51C21.9 53.1 22.1 55.2 22.4 57.2C20.7 57.7 19 58.4 17.3 59.2C15.5 56.8 14.4 54 14 51H21.8Z" />
</svg>
